<?xml version="1.0" encoding="UTF-8" standalone="no"?>
<!-- Created with Inkscape (http://www.inkscape.org/) -->

<svg
   xmlns:dc="http://purl.org/dc/elements/1.1/"
   xmlns:cc="http://creativecommons.org/ns#"
   xmlns:rdf="http://www.w3.org/1999/02/22-rdf-syntax-ns#"
   xmlns:svg="http://www.w3.org/2000/svg"
   xmlns="http://www.w3.org/2000/svg"
   xmlns:sodipodi="http://sodipodi.sourceforge.net/DTD/sodipodi-0.dtd"
   xmlns:inkscape="http://www.inkscape.org/namespaces/inkscape"
   width="100mm"
   height="100mm"
   viewBox="0 0 100 100"
   version="1.1"
   id="svg8"
   inkscape:version="0.92.3 (2405546, 2018-03-11)"
   sodipodi:docname="painting_picker.svg">
  <defs
     id="defs2" />
  <sodipodi:namedview
     id="base"
     pagecolor="#ffffff"
     bordercolor="#666666"
     borderopacity="1.0"
     inkscape:pageopacity="0.0"
     inkscape:pageshadow="2"
     inkscape:zoom="0.7"
     inkscape:cx="290.71021"
     inkscape:cy="164.27882"
     inkscape:document-units="mm"
     inkscape:current-layer="layer1"
     showgrid="false"
     inkscape:snap-global="false"
     inkscape:window-width="1920"
     inkscape:window-height="1017"
     inkscape:window-x="-8"
     inkscape:window-y="-8"
     inkscape:window-maximized="1" />
  <metadata
     id="metadata5">
    <rdf:RDF>
      <cc:Work
         rdf:about="">
        <dc:format>image/svg+xml</dc:format>
        <dc:type
           rdf:resource="http://purl.org/dc/dcmitype/StillImage" />
        <dc:title></dc:title>
      </cc:Work>
    </rdf:RDF>
  </metadata>
  <g
     inkscape:label="Camada 1"
     inkscape:groupmode="layer"
     id="layer1"
     transform="translate(0,-197)">
    <g
       id="g4595"
       transform="translate(-1.5119048,1.5119048)">
      <path
         sodipodi:nodetypes="zccccccccccccz"
         inkscape:connector-curvature="0"
         id="path4583"
         d="m 12.097574,286.91818 c 2.63241,2.71999 11.23979,-2.63182 11.23979,-2.63182 l 42.805188,-42.22253 6.383241,-6.29635 2.240922,1.24262 c 5.884735,-2.04727 5.822387,-5.16363 6.64449,-7.2109 l -2.319723,-2.50319 c 27.372858,-13.43841 1.854266,-32.40282 -6.717429,-12.42984 -1.967793,5.47364 -1.481708,5.34629 -1.481708,5.34629 l -3.30362,-2.80094 c -2.674476,1.6449 -4.413508,0.16438 -7.087983,7.3961 l 1.608958,2.31798 -47.791384,47.66237 c 0,0 -4.853151,9.41021 -2.220742,12.13021 z"
         style="fill:none;stroke:#000000;stroke-width:3;stroke-linecap:butt;stroke-linejoin:miter;stroke-miterlimit:4;stroke-dasharray:none;stroke-opacity:1" />
      <path
         sodipodi:nodetypes="ccccccccc"
         inkscape:connector-curvature="0"
         id="path4585"
         d="m 69.362796,220.62235 8.01852,6.90288 6.49514,-3.14589 5.131714,-3.56524 2.472147,-9.3723 -7.550615,-5.62442 -7.751162,4.45064 -4.610651,4.98543 z"
         style="fill:#000000;stroke:#000000;stroke-width:0.27447897px;stroke-linecap:butt;stroke-linejoin:miter;stroke-opacity:1" />
      <path
         sodipodi:nodetypes="cccccccc"
         inkscape:connector-curvature="0"
         id="path4587"
         d="m 22.489583,266.95089 22.489583,-4.53571 -19.84375,20.22172 -3.779761,2.64584 -9.071429,1.32291 0.519717,-6.85082 2.126116,-6.00036 z"
         style="fill:#000000;stroke:#000000;stroke-width:0.26458332px;stroke-linecap:butt;stroke-linejoin:miter;stroke-opacity:1" />
      <path
         inkscape:connector-curvature="0"
         id="path4589"
         d="m 67.418738,217.88822 -4.810853,2.40543 -1.469983,3.74177 0.400905,2.60588 10.557147,9.75534 4.810853,0.26726 4.276312,-3.8754 0.334087,-3.54132 z"
         style="fill:#000000;stroke:#000000;stroke-width:0.26458332px;stroke-linecap:butt;stroke-linejoin:miter;stroke-opacity:1" />
    </g>
  </g>
</svg>
